<svg width="15" height="13" viewBox="0 0 15 13" fill="none" xmlns="http://www.w3.org/2000/svg">
<path d="M14.0227 8.74446C14.0227 8.7557 14.0227 8.76554 14.0227 8.77608C13.7031 9.74424 13.2471 10.574 12.6906 11.344C12.1827 12.0431 11.5602 12.9839 10.4487 12.9839C9.48824 12.9839 8.85029 12.3663 7.86597 12.3494C6.82474 12.3326 6.25213 12.8658 5.30012 13C5.19122 13 5.08232 13 4.97553 13C4.27646 12.8989 3.71228 12.3452 3.30127 11.8464C2.0893 10.3724 1.15276 8.46834 0.978516 6.03177C0.978516 5.79289 0.978516 5.55472 0.978516 5.31584C1.05229 3.57202 1.89961 2.1542 3.02585 1.46707C3.62024 1.10172 4.43735 0.790478 5.3472 0.92959C5.73713 0.990013 6.1355 1.1235 6.48468 1.25559C6.8156 1.38276 7.22943 1.60829 7.62147 1.59634C7.88705 1.58862 8.15122 1.45021 8.41891 1.35255C9.20299 1.06941 9.97162 0.74481 10.9848 0.897272C12.2023 1.08135 13.0665 1.62234 13.6005 2.45701C12.5705 3.11253 11.7562 4.10036 11.8953 5.78727C12.019 7.31961 12.9098 8.21611 14.0227 8.74446Z" fill="black"/>
</svg>
