<svg width="17" height="16" viewBox="0 0 17 16" fill="none" xmlns="http://www.w3.org/2000/svg">
<path d="M16.1714 6.545H8.53536V9.818H12.8634C12.1714 12 10.4624 12.727 8.50036 12.727C7.74006 12.728 6.99074 12.5455 6.31598 12.1951C5.64123 11.8447 5.06095 11.3368 4.62438 10.7143C4.1878 10.0918 3.90782 9.37322 3.80818 8.61947C3.70854 7.86573 3.79219 7.09907 4.05203 6.38454C4.31186 5.67001 4.74022 5.0287 5.30075 4.51503C5.86129 4.00135 6.53746 3.63046 7.2719 3.43382C8.00633 3.23719 8.77737 3.22061 9.51958 3.3855C10.2618 3.55039 10.9533 3.89188 11.5354 4.381L13.9134 2.116C12.9557 1.23383 11.7972 0.598747 10.5385 0.265867C9.27969 -0.0670124 7.95869 -0.0876225 6.69015 0.205826C5.42162 0.499275 4.24387 1.09791 3.25917 1.94977C2.27447 2.80163 1.51257 3.88096 1.03961 5.09406C0.566654 6.30716 0.396939 7.61737 0.545198 8.91094C0.693457 10.2045 1.15521 11.4423 1.89037 12.517C2.62553 13.5916 3.61187 14.4706 4.76377 15.0775C5.91568 15.6845 7.19832 16.0012 8.50036 16C12.9114 16 16.9004 13.091 16.1714 6.545Z" fill="#1976D2"/>
</svg>
