<svg width="48" height="48" viewBox="0 0 48 48" fill="none" xmlns="http://www.w3.org/2000/svg">
<rect x="0.5" y="0.5" width="47" height="47" rx="15.5" fill="white"/>
<g clip-path="url(#clip0_313_6309)">
<path d="M24 13.7163C18.4417 13.6067 13.8422 18.0145 13.7153 23.5725C13.7298 26.4017 14.9826 29.0827 17.1436 30.9089V33.8572C17.1436 34.0939 17.3354 34.2857 17.5721 34.2857C17.6524 34.2857 17.7311 34.2632 17.7992 34.2206L20.1878 32.7285C21.4048 33.194 22.6971 33.4313 24 33.4287C29.5584 33.5383 34.1578 29.1305 34.2848 23.5725C34.1578 18.0145 29.5584 13.6067 24 13.7163Z" fill="#0F73EE"/>
<path d="M30.7707 20.7442C30.6432 20.5733 30.4094 20.5221 30.2222 20.6242L25.7655 23.0539L22.9929 20.6765C22.8229 20.5307 22.5693 20.5404 22.411 20.6988L17.2686 25.8411C17.1018 26.0089 17.1026 26.2803 17.2705 26.4471C17.4047 26.5806 17.6105 26.6101 17.7769 26.5199L22.2336 24.0901L25.0087 26.4685C25.1788 26.6142 25.4323 26.6045 25.5907 26.4462L30.733 21.3038C30.8829 21.1526 30.8989 20.9142 30.7707 20.7442Z" fill="white"/>
</g>
<rect x="0.5" y="0.5" width="47" height="47" rx="15.5" stroke="#E4E7EB"/>
<defs>
<clipPath id="clip0_313_6309">
<rect width="20.5714" height="20.5714" fill="white" transform="translate(13.7144 13.7143)"/>
</clipPath>
</defs>
</svg>
