<svg width="48" height="48" viewBox="0 0 48 48" fill="none" xmlns="http://www.w3.org/2000/svg">
<rect width="48" height="48" rx="24" fill="#FCD969"/>
<mask id="mask0_306_5079" style="mask-type:luminance" maskUnits="userSpaceOnUse" x="0" y="0" width="48" height="48">
<rect width="48" height="48" rx="24" fill="white"/>
</mask>
<g mask="url(#mask0_306_5079)">
<path fill-rule="evenodd" clip-rule="evenodd" d="M40.286 6.32431C40.286 6.32431 40.2446 6.20911 40.1742 5.99106C40.1033 5.76702 40.0011 5.44611 39.8682 5.02834C39.602 4.18006 39.2141 2.94355 38.7177 1.36332C37.7319 -1.80312 36.3176 -6.34596 34.5942 -11.8803L34.6938 -11.828C27.0531 -9.57748 17.4348 -6.74429 7.01253 -3.67434L7.01023 -3.67359L7.07687 -3.79477C9.0756 2.70268 10.9755 8.87998 12.684 14.4345L12.5706 14.3747C20.7207 11.9989 27.6356 9.98296 32.5201 8.5587C34.9634 7.8518 36.8982 7.29152 38.2298 6.90628C38.8904 6.71703 39.4002 6.57079 39.7525 6.4698C39.9218 6.4223 40.0524 6.38602 40.1477 6.35947C40.237 6.33516 40.286 6.32431 40.286 6.32431C40.286 6.32431 40.2458 6.33965 40.1608 6.36658C40.0688 6.39463 39.9428 6.43353 39.7785 6.48439C39.432 6.58874 38.9303 6.73985 38.2796 6.93583C36.9564 7.3308 35.0327 7.90417 32.6039 8.62864C27.7122 10.0772 20.7862 12.128 12.6231 14.5456L12.5358 14.5714L12.5093 14.4858C10.7959 8.93309 8.89024 2.75729 6.88614 -3.73904L6.85742 -3.83217L6.95278 -3.86023L6.95508 -3.86097C17.3819 -6.91708 27.0041 -9.73719 34.6479 -11.9776L34.7245 -12L34.7471 -11.9252C36.4429 -6.36166 37.8346 -1.79452 38.8047 1.38838C39.2818 2.96637 39.6552 4.201 39.9111 5.04816C40.0344 5.4622 40.1294 5.78011 40.1956 6.00191C40.2588 6.21659 40.286 6.32431 40.286 6.32431Z" fill="white" fill-opacity="0.3"/>
<path fill-rule="evenodd" clip-rule="evenodd" d="M35.1426 -12.8571C35.1452 -12.8556 35.1323 -12.8276 35.1043 -12.7739C35.0701 -12.7111 35.0276 -12.6343 34.976 -12.5394C34.8516 -12.3219 34.6813 -12.0236 34.4654 -11.6461C34.0064 -10.8591 33.355 -9.74423 32.5515 -8.36801C30.9093 -5.59099 28.646 -1.76489 26.1237 2.49954L26.0812 2.57139L26.003 2.54114C25.7371 2.43827 25.451 2.32784 25.1635 2.21703C20.3452 0.343122 15.9845 -1.35266 12.8096 -2.58706C11.244 -3.20615 9.97159 -3.70914 9.0744 -4.06388C8.64648 -4.23784 8.30847 -4.37512 8.06226 -4.47497C7.95642 -4.51997 7.8703 -4.55665 7.80088 -4.58653C7.74246 -4.61263 7.71325 -4.62738 7.71439 -4.6304C7.71553 -4.6338 7.74739 -4.62511 7.80809 -4.60506C7.87979 -4.5801 7.9678 -4.54947 8.07668 -4.51203C8.32592 -4.42051 8.66848 -4.29457 9.10209 -4.13573C10.005 -3.79461 11.2849 -3.31167 12.8604 -2.71716C16.0402 -1.49637 20.4086 0.180502 25.2352 2.03323C25.5227 2.14442 25.8084 2.25485 26.0743 2.35772L25.9541 2.39932C28.4966 -1.85263 30.7784 -5.66814 32.4343 -8.43722C33.2602 -9.8002 33.9294 -10.9049 34.4009 -11.6839C34.6301 -12.0538 34.811 -12.3461 34.9427 -12.5591C35.0011 -12.6498 35.0485 -12.724 35.0876 -12.7841C35.121 -12.834 35.1396 -12.859 35.1426 -12.8571Z" fill="#FCD969"/>
<path fill-rule="evenodd" clip-rule="evenodd" d="M72.857 16.2793C72.857 16.2793 72.8213 16.2666 72.7536 16.2405C72.6848 16.2136 72.5852 16.1744 72.4537 16.1233C72.1888 16.0188 71.7986 15.8652 71.2907 15.6651C70.2745 15.2633 68.7889 14.6756 66.9051 13.9308C63.1419 12.4381 57.7893 10.3155 51.4264 7.79221L51.4717 7.77262C49.4437 12.8645 47.1188 18.7019 44.6589 24.8792L44.6582 24.8812L44.6363 24.8308C52.5644 27.9871 59.9327 30.9206 66.0512 33.3563L66.0092 33.3744C68.07 28.2218 69.7786 23.9508 70.972 20.9666C71.571 19.474 72.0404 18.3032 72.361 17.5046C72.5214 17.1059 72.6444 16.8005 72.7282 16.5931C72.8113 16.3868 72.857 16.2793 72.857 16.2793C72.857 16.2793 72.8178 16.3841 72.7371 16.5892C72.6555 16.7959 72.536 17.1005 72.3787 17.4977C72.0627 18.2963 71.5994 19.4667 71.0085 20.9593C69.8205 23.9508 68.1204 28.2326 66.0692 33.3982L66.0577 33.4285L66.0273 33.4166C59.9077 30.984 52.5379 28.0551 44.6074 24.9027L44.5713 24.8885L44.5855 24.8524L44.5863 24.8504C47.0492 18.6746 49.3768 12.8376 51.4071 7.74688L51.4198 7.71423L51.4521 7.72729C57.8185 10.2675 63.1738 12.4043 66.9389 13.9066C68.8166 14.6579 70.2976 15.2502 71.3103 15.6555C71.8143 15.8579 72.2015 16.0131 72.4637 16.1187C72.5929 16.1709 72.6913 16.2109 72.759 16.2382C72.8247 16.265 72.857 16.2793 72.857 16.2793Z" fill="white" fill-opacity="0.3"/>
<path fill-rule="evenodd" clip-rule="evenodd" d="M1.14003 75.33L-10.2856 63.8667L-4.54102 53.3258C1.20322 45.9802 13.3626 46.4534 13.3626 46.4534C13.3626 46.4534 21.6375 45.657 31.2961 47.5346C40.9543 49.4122 40.1764 55.798 40.1764 55.798L41.4704 79.4515L42.8572 98.711L7.23352 99.4285L1.14003 75.33Z" fill="#EE6F6E"/>
<path fill-rule="evenodd" clip-rule="evenodd" d="M13.8025 23.9876C13.95 24.4873 13.7818 25.0701 13.3932 25.4059C13.0042 25.7418 12.4175 25.8113 11.9648 25.5748C11.1046 25.1264 10.9956 23.9049 11.1646 22.928C11.334 21.9508 11.6566 20.9083 11.2585 20.0044C10.9537 19.3129 10.2942 18.8749 9.77964 18.3306C8.88324 17.3824 8.40561 16.0006 8.62367 14.6968C8.84174 13.393 9.79133 12.2212 11.0295 11.8652C12.293 11.5014 13.8504 11.9013 14.791 10.9597C15.4731 10.2776 15.5149 9.15936 16.0424 8.34516C16.8614 7.08058 18.5927 6.88024 20.0558 7.08563C21.5185 7.2918 23.008 7.77441 24.4409 7.4075C25.6372 7.10116 26.6196 6.24115 27.7409 5.7135C30.1716 4.56928 33.2785 5.18896 35.1181 7.18464C36.9576 9.18071 37.3945 12.4064 36.1556 14.8439C35.7104 15.7199 35.0407 16.5154 34.1504 16.8858" fill="black"/>
<path fill-rule="evenodd" clip-rule="evenodd" d="M20.6181 55.7142C24.6957 55.7101 27.983 52.3816 27.9264 48.3144L27.8304 41.3533C27.8304 41.3533 33.6918 40.768 34.0801 34.9746C34.4684 29.1816 34.1883 15.8146 34.1883 15.8146C27.6186 12.5653 19.8006 13.1165 13.7547 17.2564L12.8574 17.8713L13.2939 48.5188C13.3508 52.5122 16.6146 55.7188 20.6181 55.7142Z" fill="#F1AD92"/>
<path fill-rule="evenodd" clip-rule="evenodd" d="M32.4949 25.7076C31.4487 25.507 31.4564 24.1955 32.5049 24.0061C32.5507 23.9979 32.6023 23.9979 32.6481 24.0068C33.6943 24.2075 33.6866 25.5193 32.6381 25.7083C32.5923 25.7166 32.5411 25.7162 32.4949 25.7076Z" fill="black"/>
<path fill-rule="evenodd" clip-rule="evenodd" d="M34.271 23.9761C34.1586 24.154 33.5237 23.2803 32.5947 23.1921C31.6657 23.082 30.9638 23.8131 30.8677 23.6134C30.8201 23.5238 30.9369 23.1956 31.2438 22.8632C31.5449 22.5322 32.0528 22.2323 32.6317 22.2937C33.2111 22.3558 33.689 22.7609 33.9602 23.1525C34.2366 23.5477 34.3248 23.8978 34.271 23.9761Z" fill="black"/>
<path fill-rule="evenodd" clip-rule="evenodd" d="M24.4882 24.1528C24.8773 24.4223 24.9743 24.9562 24.7049 25.3454C24.4355 25.7342 23.9013 25.8312 23.5121 25.5617C23.123 25.2923 23.0261 24.7583 23.2958 24.3692C23.5653 23.98 24.0991 23.883 24.4882 24.1528Z" fill="black"/>
<path fill-rule="evenodd" clip-rule="evenodd" d="M25.699 23.9761C25.587 24.154 24.9521 23.2797 24.0226 23.1914C23.0936 23.0814 22.392 23.8131 22.2959 23.6127C22.2483 23.5238 22.3651 23.1957 22.672 22.8626C22.9727 22.5317 23.4807 22.2318 24.0601 22.2939C24.639 22.3552 25.1174 22.7603 25.3882 23.1526C25.6651 23.5471 25.7533 23.8971 25.699 23.9761Z" fill="black"/>
<path fill-rule="evenodd" clip-rule="evenodd" d="M28.3692 30.7419C28.3675 30.6811 28.754 30.6104 29.3801 30.5452C29.543 30.5342 29.6717 30.4968 29.6881 30.3891C29.7224 30.2689 29.6694 30.0487 29.5976 29.8025C29.4607 29.2808 29.3223 28.7525 29.1773 28.1992C28.5996 25.9167 28.2065 24.0368 28.2992 24.0006C28.3918 23.9636 28.9352 25.7837 29.5131 28.0666C29.6489 28.6235 29.7787 29.1551 29.9068 29.6801C29.956 29.9179 30.0565 30.1986 29.9586 30.5261C29.9068 30.6902 29.7743 30.8024 29.6661 30.8298C29.5571 30.8632 29.466 30.8569 29.3883 30.8562C28.7602 30.8419 28.3707 30.8027 28.3692 30.7419Z" fill="black"/>
<path fill-rule="evenodd" clip-rule="evenodd" d="M24.9319 31.7142C26.0496 32.07 27.3837 32.5137 29.1431 32.7297C29.1431 32.7297 28.0358 33.8114 26.2457 33.2832C24.3869 32.7348 24.9319 31.7142 24.9319 31.7142Z" fill="#F2F6FF"/>
<path fill-rule="evenodd" clip-rule="evenodd" d="M27.4284 40.4097C27.4284 40.4097 24.0368 40.5134 20.5713 37.7142C20.5713 37.7142 22.0082 42.2104 27.3653 41.9923L27.4284 40.4097Z" fill="#EA8E6C"/>
<path fill-rule="evenodd" clip-rule="evenodd" d="M34.1163 17.1211C34.1163 17.1211 30.721 18.9099 26.2168 16.6923C23.261 15.2367 19.8348 14.5657 19.0941 15.191C18.3533 15.816 18.2533 18.9453 15.3703 19.9164C15.3703 19.9164 15.6815 25.8773 13.3827 25.7109C11.0843 25.5444 12.345 16.2772 12.345 16.2772L17.905 13.323L24.0084 12L29.7958 12.727L34.2857 13.9046L34.1163 17.1211Z" fill="black"/>
<path fill-rule="evenodd" clip-rule="evenodd" d="M13.7144 23.3976C13.6112 23.3498 9.52579 22.022 9.43029 25.9364C9.33479 29.8507 13.6145 29.1317 13.6246 29.0194C13.6347 28.9074 13.7144 23.3976 13.7144 23.3976Z" fill="#F1AD92"/>
<path fill-rule="evenodd" clip-rule="evenodd" d="M12.8539 27.8972C12.8372 27.8813 12.785 27.9552 12.6688 28.0183C12.5556 28.0795 12.362 28.1187 12.1601 28.0173C11.7509 27.8154 11.4183 26.9836 11.4153 26.0999C11.4131 25.6537 11.4954 25.2312 11.6276 24.8831C11.7531 24.5279 11.9427 24.2831 12.1508 24.2424C12.3586 24.1882 12.5028 24.3485 12.5482 24.4877C12.5981 24.6265 12.5716 24.7233 12.5921 24.7321C12.6026 24.7448 12.6774 24.6527 12.6495 24.4494C12.635 24.3517 12.5914 24.2349 12.5016 24.1382C12.4093 24.0396 12.2726 23.9872 12.1274 24.0027C11.8261 24.0204 11.5487 24.3602 11.403 24.7424C11.2414 25.1256 11.1409 25.6004 11.1431 26.1014C11.1502 27.0892 11.5364 28.0248 12.0972 28.2458C12.3702 28.343 12.6014 28.2458 12.7217 28.1332C12.845 28.0159 12.8673 27.9066 12.8539 27.8972Z" fill="#EA8E6C"/>
<path fill-rule="evenodd" clip-rule="evenodd" d="M11.1436 11.3156C11.1206 11.238 11.8033 10.9248 12.5856 11.4016C13.3718 11.8637 13.7595 12.8185 13.7103 12.8529C13.6651 12.9216 13.2385 12.1336 12.5134 11.7116C11.7938 11.2685 11.15 11.4156 11.1436 11.3156Z" fill="black"/>
<path fill-rule="evenodd" clip-rule="evenodd" d="M14.0269 8.57149C14.1754 8.57695 13.9422 9.57887 14.2384 10.7744C14.5257 11.9796 15.5328 12.8184 15.4198 12.8562C15.3795 12.8721 15.0704 12.6858 14.7105 12.3286C14.3586 11.9709 13.9769 11.4324 13.8228 10.8095C13.5169 9.55837 13.9471 8.56146 14.0269 8.57149Z" fill="black"/>
<path fill-rule="evenodd" clip-rule="evenodd" d="M30.002 22.2046C29.9772 22.1395 30.1798 21.9476 30.5637 21.7637C30.9449 21.5793 31.5134 21.4224 32.1495 21.4288C32.7856 21.4373 33.3509 21.6068 33.7294 21.8008C34.1102 21.9937 34.3096 22.1898 34.2834 22.2545C34.2252 22.4013 33.3139 21.9836 32.1445 21.981C30.9761 21.9566 30.0575 22.353 30.002 22.2046Z" fill="black"/>
<path fill-rule="evenodd" clip-rule="evenodd" d="M21.4308 21.3475C21.4055 21.2823 21.6086 21.091 21.9921 20.9065C22.3738 20.7221 22.9423 20.5657 23.578 20.5716C24.2146 20.58 24.78 20.7496 25.1585 20.9436C25.5393 21.1365 25.7383 21.3326 25.7121 21.3973C25.6544 21.5441 24.743 21.1265 23.5735 21.1238C22.4045 21.0989 21.4863 21.4959 21.4308 21.3475Z" fill="black"/>
<path fill-rule="evenodd" clip-rule="evenodd" d="M29.1991 22.3827C29.2039 22.3875 29.2084 22.473 29.2139 22.6293C29.2187 22.8059 29.225 23.0287 29.2328 23.3023C29.2383 23.5979 29.245 23.9467 29.2527 24.3465C29.2542 24.7494 29.2768 25.2188 29.4372 25.6993C29.5914 26.1786 29.8591 26.671 30.2546 27.0894C30.6536 27.4999 31.1752 27.8424 31.7826 27.9924C32.084 28.0691 32.4041 28.1065 32.7284 28.0815C33.0522 28.0648 33.3816 27.9944 33.6955 27.8619C34.3288 27.6121 34.9022 27.1205 35.2897 26.4741C35.6609 25.8568 35.8276 25.1372 35.8095 24.4379C35.8113 23.7263 35.8128 23.039 35.8147 22.3827L35.9038 22.479C33.9669 22.4599 32.3091 22.444 31.1061 22.432C30.529 22.4213 30.062 22.4125 29.713 22.4058C29.5637 22.4014 29.4398 22.3974 29.3363 22.3942C29.2494 22.3903 29.2028 22.3867 29.1991 22.3827C29.1921 22.3751 29.3581 22.3676 29.6742 22.3596C30.018 22.3529 30.4783 22.3441 31.0469 22.3334C32.2651 22.3214 33.9428 22.3055 35.9038 22.2864L35.9932 22.2856L35.9936 22.3827C35.9951 23.039 35.9966 23.7263 35.9984 24.4379C36.0202 25.1603 35.845 25.9359 35.4516 26.5863C35.0412 27.2708 34.4327 27.7899 33.7617 28.052C33.4289 28.1905 33.0799 28.2637 32.738 28.2788C32.3956 28.303 32.0584 28.2617 31.7409 28.1777C31.1016 28.0143 30.5556 27.6479 30.1426 27.2116C29.7326 26.7677 29.4601 26.2478 29.3082 25.7458C29.1496 25.241 29.1355 24.7558 29.1455 24.3373C29.1533 23.9272 29.1599 23.5692 29.1655 23.2661C29.1733 22.9961 29.1795 22.7765 29.1843 22.6023C29.1899 22.4531 29.1947 22.3775 29.1991 22.3827Z" fill="black"/>
<path fill-rule="evenodd" clip-rule="evenodd" d="M20.6274 22.3827C20.6318 22.3875 20.6366 22.473 20.6418 22.6293C20.647 22.8059 20.6529 23.0287 20.6607 23.3023C20.6666 23.5979 20.6732 23.9467 20.681 24.3465C20.6825 24.7494 20.7047 25.2184 20.8655 25.6993C21.0196 26.1786 21.2869 26.6706 21.6825 27.0895C22.0814 27.5 22.6035 27.8425 23.2105 27.9924C23.5122 28.0692 23.832 28.1066 24.1562 28.0811C24.4801 28.0648 24.8095 27.9944 25.1234 27.8619C25.7567 27.6121 26.3301 27.1201 26.7179 26.4741C27.0891 25.8564 27.2555 25.1372 27.2377 24.438C27.2392 23.7264 27.241 23.0386 27.2429 22.3827L27.332 22.4786C25.3951 22.4599 23.7373 22.4436 22.5343 22.432C21.9572 22.4209 21.4899 22.4125 21.1413 22.4058C20.9915 22.4014 20.8677 22.3974 20.7645 22.3938C20.6777 22.3903 20.6307 22.3863 20.6274 22.3827C20.62 22.3747 20.7864 22.3676 21.1025 22.3592C21.4459 22.3529 21.9066 22.3441 22.4752 22.3334C23.693 22.3214 25.3711 22.3051 27.332 22.2864L27.4215 22.2856V22.3827C27.4229 23.0386 27.4248 23.7264 27.4266 24.438C27.4484 25.1603 27.2732 25.936 26.8798 26.5859C26.4695 27.2705 25.8609 27.7899 25.1899 28.0521C24.8572 28.1905 24.5082 28.2633 24.1658 28.2788C23.8239 28.3031 23.4863 28.2613 23.1691 28.1778C22.5295 28.0143 21.9838 27.6479 21.5705 27.2116C21.1605 26.7677 20.8884 26.2478 20.7361 25.7454C20.5775 25.2407 20.5638 24.7554 20.5738 24.3373C20.5815 23.9268 20.5882 23.5692 20.5937 23.2657C20.6015 22.9961 20.6074 22.7765 20.6126 22.6019C20.6178 22.4527 20.6226 22.3775 20.6274 22.3827Z" fill="black"/>
<path fill-rule="evenodd" clip-rule="evenodd" d="M30.0001 23.5718C30.0001 23.6953 29.4244 23.7947 28.7142 23.7947C28.0044 23.7947 27.4287 23.6953 27.4287 23.5718C27.4287 23.4484 28.0044 23.3481 28.7142 23.3481C29.4244 23.3481 30.0001 23.4484 30.0001 23.5718Z" fill="black"/>
<path fill-rule="evenodd" clip-rule="evenodd" d="M12.8574 23.5966C12.8571 23.4732 14.3919 23.3626 16.2853 23.348C18.1794 23.3352 19.7142 23.4235 19.7146 23.5469C19.7146 23.6703 18.1798 23.7809 16.286 23.7946C14.3926 23.8083 12.8574 23.72 12.8574 23.5966Z" fill="black"/>
</g>
</svg>
