<svg width="48" height="48" viewBox="0 0 48 48" fill="none" xmlns="http://www.w3.org/2000/svg">
<rect width="48" height="48" rx="16" fill="#0F73EE"/>
<path fill-rule="evenodd" clip-rule="evenodd" d="M31.4161 27.6901V29.9401C31.4178 30.3624 31.2414 30.7659 30.9302 31.0515C30.6189 31.337 30.2017 31.4781 29.7811 31.4401C27.4732 31.1893 25.2563 30.4007 23.3086 29.1376C21.4965 27.9861 19.9601 26.4497 18.8086 24.6376C17.5411 22.681 16.7523 20.4533 16.5061 18.1351C16.4682 17.7157 16.6083 17.2998 16.8922 16.9888C17.176 16.6778 17.5775 16.5005 17.9986 16.5001H20.2486C21.0015 16.4927 21.6432 17.0445 21.7486 17.7901C21.8436 18.5101 22.0197 19.2171 22.2736 19.8976C22.4796 20.4457 22.3479 21.0637 21.9361 21.4801L20.9836 22.4326C22.0513 24.3102 23.6059 25.8649 25.4836 26.9326L26.4361 25.9801C26.8525 25.5683 27.4704 25.4365 28.0186 25.6426C28.699 25.8965 29.406 26.0726 30.1261 26.1676C30.8803 26.274 31.435 26.9287 31.4161 27.6901Z" stroke="white" stroke-width="2" stroke-linecap="round" stroke-linejoin="round"/>
</svg>
