<svg width="16" height="16" viewBox="0 0 16 16" fill="none" xmlns="http://www.w3.org/2000/svg">
<path fill-rule="evenodd" clip-rule="evenodd" d="M14.1373 7.86988L15.7866 10.481H0.86377L2.51304 7.86984V3.06662L3.1844 2.39526H13.466L14.1373 3.06662V7.86988ZM12.7946 7.08946V3.73797H3.85575V7.08946C4.72096 6.86565 6.21562 6.58966 8.32518 6.58966C10.4347 6.58966 11.9294 6.86565 12.7946 7.08946Z" fill="#020433"/>
<path d="M0.833496 11.3071V12.6498H2.39787V14.4988H3.74058V12.6498H12.9094V14.4988H14.2521V12.6498H15.8165V11.3071H0.833496Z" fill="#020433"/>
<path d="M7.77996 5.89114V5.10896C7.77996 4.64468 7.10614 4.26819 6.27497 4.26819C5.44379 4.26819 4.77002 4.64468 4.77002 5.10896V6.28302C4.77002 6.28302 5.65774 6.05952 6.26791 6.00174C6.81723 5.94968 7.77996 5.89114 7.77996 5.89114Z" fill="#020433"/>
<path d="M11.8796 6.28302V5.10896C11.8796 4.64468 11.2058 4.26819 10.3746 4.26819C9.54344 4.26819 8.86963 4.64468 8.86963 5.10896V5.89114C8.86963 5.89114 9.83239 5.94965 10.3817 6.00174C10.9919 6.05952 11.8796 6.28302 11.8796 6.28302Z" fill="#020433"/>
</svg>
