<svg width="48" height="48" viewBox="0 0 48 48" fill="none" xmlns="http://www.w3.org/2000/svg">
<rect x="0.5" y="0.5" width="47" height="47" rx="15.5" fill="white"/>
<g clip-path="url(#clip0_313_6332)">
<path d="M31.3029 16.6706C29.3486 14.7814 26.7772 13.7143 24.0386 13.7143C16.1786 13.7143 11.2432 22.23 15.1681 29.004L13.7144 34.2857L19.1444 32.8697C21.5101 34.1477 23.4481 34.0346 24.0438 34.11C33.1578 34.11 37.6946 23.0837 31.2901 16.704L31.3029 16.6706Z" fill="#E4E7EB"/>
<path d="M24.0575 32.358L24.0523 32.3572H24.0386C21.3112 32.3572 19.5686 31.0654 19.3972 30.9909L16.1829 31.8266L17.0443 28.7023L16.8395 28.3809C15.9909 27.03 15.54 25.4743 15.54 23.8723C15.54 16.3354 24.75 12.5666 30.0798 17.8937C35.3966 23.1652 31.6638 32.358 24.0575 32.358Z" fill="#4CAF50"/>
<path d="M28.7203 25.9774L28.7126 26.0417C28.4546 25.9131 27.198 25.2986 26.964 25.2137C26.4386 25.0191 26.5868 25.1829 25.578 26.3383C25.428 26.5054 25.2788 26.5183 25.0243 26.4026C24.7671 26.274 23.9417 26.004 22.9646 25.1297C22.2034 24.4483 21.6926 23.6126 21.5417 23.3554C21.2906 22.9217 21.816 22.86 22.2943 21.9549C22.38 21.7749 22.3363 21.6334 22.2728 21.5057C22.2085 21.3771 21.6968 20.1171 21.4826 19.6149C21.2768 19.1143 21.0651 19.1777 20.9066 19.1777C20.4128 19.1349 20.052 19.1417 19.734 19.4726C18.3505 20.9931 18.6994 22.5617 19.8831 24.2297C22.2094 27.2743 23.4488 27.8349 25.7151 28.6131C26.3271 28.8077 26.8851 28.7803 27.3266 28.7169C27.8186 28.6389 28.8411 28.0989 29.0546 27.4946C29.2731 26.8903 29.2731 26.3889 29.2088 26.2731C29.1454 26.1574 28.9774 26.0931 28.7203 25.9774Z" fill="white"/>
</g>
<rect x="0.5" y="0.5" width="47" height="47" rx="15.5" stroke="#E4E7EB"/>
<defs>
<clipPath id="clip0_313_6332">
<rect width="20.5714" height="20.5714" fill="white" transform="translate(13.7144 13.7143)"/>
</clipPath>
</defs>
</svg>
